<?xml version="1.0" encoding="UTF-8"?>
<svg version="1.1" xmlns="http://www.w3.org/2000/svg" width="230" height="165">
<path d="M0 0 C75.9 0 151.8 0 230 0 C230 54.45 230 108.9 230 165 C154.1 165 78.2 165 0 165 C0 110.55 0 56.1 0 0 Z " fill="#AAE5B8" transform="translate(0,0)"/>
<path d="M0 0 C4.56197101 3.19818178 8.57935744 7.81350264 9.85546875 13.30078125 C10.87800148 21.11685332 9.08440993 26.71734849 4.85546875 33.30078125 C3.94316103 34.40541331 3.00805243 35.49194658 2.04296875 36.55078125 C-0.54989115 39.81037655 -0.59526345 41.24419142 -0.14453125 45.30078125 C-0.14453125 46.29078125 -0.14453125 47.28078125 -0.14453125 48.30078125 C0.16967946 50.30387454 0.50057335 52.30449461 0.85546875 54.30078125 C0.19546875 54.30078125 -0.46453125 54.30078125 -1.14453125 54.30078125 C-1.14453125 56.28078125 -1.14453125 58.26078125 -1.14453125 60.30078125 C-3.12453125 60.79578125 -3.12453125 60.79578125 -5.14453125 61.30078125 C-5.24765625 62.08453125 -5.35078125 62.86828125 -5.45703125 63.67578125 C-6.14453125 66.30078125 -6.14453125 66.30078125 -9.14453125 68.30078125 C-12.8774828 68.77732826 -14.48870044 68.80128371 -17.51953125 66.48828125 C-19.14453125 64.30078125 -19.14453125 64.30078125 -19.14453125 61.30078125 C-19.78390625 61.09453125 -20.42328125 60.88828125 -21.08203125 60.67578125 C-23.14453125 59.30078125 -23.14453125 59.30078125 -23.796875 56.63671875 C-24.15697564 53.18137108 -23.99673021 50.01360677 -23.76953125 46.55078125 C-23.6793983 38.77476605 -26.40834652 35.14207575 -31.14453125 29.30078125 C-33.9619837 24.60826561 -35.15738114 19.72537151 -34.14453125 14.30078125 C-31.66464336 6.89556048 -27.91743511 2.15757373 -21.14453125 -1.69921875 C-14.10946791 -5.14190932 -6.67713013 -3.66509139 0 0 Z " fill="#393E3A" transform="translate(125.14453125,36.69921875)"/>
<path d="M0 0 C4.94754234 2.84458286 7.84443678 7.09581034 9.625 12.4375 C10.50399103 22.80959417 5.13476667 30.61295287 -1.375 38.4375 C-2.035 38.4375 -2.695 38.4375 -3.375 38.4375 C-2.79851925 31.08737044 -0.66453836 24.42325424 1.625 17.4375 C0.861875 17.64375 0.09875 17.85 -0.6875 18.0625 C-3.375 18.4375 -3.375 18.4375 -6.375 16.4375 C-6.705 17.4275 -7.035 18.4175 -7.375 19.4375 C-8.695 19.4375 -10.015 19.4375 -11.375 19.4375 C-11.705 18.7775 -12.035 18.1175 -12.375 17.4375 C-13.15875 17.623125 -13.9425 17.80875 -14.75 18 C-17.375 18.4375 -17.375 18.4375 -19.375 17.4375 C-19.17003906 18.19933594 -18.96507813 18.96117188 -18.75390625 19.74609375 C-17.12222695 25.99956324 -15.91172183 31.99683806 -15.375 38.4375 C-16.035 38.4375 -16.695 38.4375 -17.375 38.4375 C-18.99609375 36.42578125 -18.99609375 36.42578125 -20.8125 33.75 C-21.40933594 32.87988281 -22.00617188 32.00976562 -22.62109375 31.11328125 C-23.48927734 29.78876953 -23.48927734 29.78876953 -24.375 28.4375 C-24.93316406 27.64472656 -25.49132812 26.85195312 -26.06640625 26.03515625 C-28.66818217 20.87043688 -28.05446849 15.05443951 -27.375 9.4375 C-25.58254839 4.68949484 -21.99326934 1.3805996 -17.45703125 -0.90234375 C-11.68227609 -2.73336368 -5.54094088 -2.4195791 0 0 Z " fill="#A9E3B7" transform="translate(122.375,38.5625)"/>
<path d="M0 0 C3.96 0 7.92 0 12 0 C12 1.65 12 3.3 12 5 C11.34 5 10.68 5 10 5 C10.2165625 5.54269531 10.433125 6.08539063 10.65625 6.64453125 C10.9346875 7.35996094 11.213125 8.07539063 11.5 8.8125 C11.7784375 9.52019531 12.056875 10.22789062 12.34375 10.95703125 C13 13 13 13 13 16 C13.66 16 14.32 16 15 16 C15.99 12.37 16.98 8.74 18 5 C17.34 5 16.68 5 16 5 C16 3.35 16 1.7 16 0 C19.63 0 23.26 0 27 0 C27 1.65 27 3.3 27 5 C26.34 5 25.68 5 25 5 C27.475 10.445 27.475 10.445 30 16 C30.99 12.37 31.98 8.74 33 5 C32.34 5 31.68 5 31 5 C31 3.35 31 1.7 31 0 C34.96 0 38.92 0 43 0 C43 1.65 43 3.3 43 5 C42.01 5 41.02 5 40 5 C39.773125 6.19625 39.54625 7.3925 39.3125 8.625 C37.85180653 15.2887476 35.37759517 21.62042213 33 28 C31.02 28 29.04 28 27 28 C24.525 22.06 24.525 22.06 22 16 C20.20931427 18.6860286 19.33944209 20.6626589 18.375 23.6875 C18.11460938 24.49574219 17.85421875 25.30398437 17.5859375 26.13671875 C17.29589844 27.05904297 17.29589844 27.05904297 17 28 C14.69 28 12.38 28 10 28 C9.65219482 27.00818726 9.65219482 27.00818726 9.29736328 25.99633789 C8.24740644 23.01568829 7.18636786 20.03910433 6.125 17.0625 C5.57779297 15.50112305 5.57779297 15.50112305 5.01953125 13.90820312 C4.48779297 12.42416992 4.48779297 12.42416992 3.9453125 10.91015625 C3.62062988 9.99371338 3.29594727 9.07727051 2.96142578 8.13305664 C2.19564503 5.83463151 2.19564503 5.83463151 0 5 C0 3.35 0 1.7 0 0 Z " fill="#252726" transform="translate(10,120)"/>
<path d="M0 0 C3.3 0 6.6 0 10 0 C10 5.94 10 11.88 10 18 C10.99 17.67 11.98 17.34 13 17 C12.67 16.67 12.34 16.34 12 16 C12 14.35 12 12.7 12 11 C15.63 11 19.26 11 23 11 C23 12.65 23 14.3 23 16 C20.5 17.8125 20.5 17.8125 18 19 C19.24976756 22.65316671 19.67098753 23.78065836 23 26 C23.1875 28.625 23.1875 28.625 23 31 C19.75 31.375 19.75 31.375 16 31 C12 26.28205128 12 26.28205128 12 23 C11.34 23 10.68 23 10 23 C10 23.99 10 24.98 10 26 C10.66 26 11.32 26 12 26 C12 27.65 12 29.3 12 31 C8.37 31 4.74 31 1 31 C1 29.35 1 27.7 1 26 C1.66 26 2.32 26 3 26 C3 19.07 3 12.14 3 5 C2.01 5 1.02 5 0 5 C0 3.35 0 1.7 0 0 Z " fill="#2F312F" transform="translate(96,117)"/>
<path d="M0 0 C7.26 0 14.52 0 22 0 C22 2.97 22 5.94 22 9 C20.02 9 18.04 9 16 9 C16 7.68 16 6.36 16 5 C14.02 5 12.04 5 10 5 C10 6.98 10 8.96 10 11 C12.97 11 15.94 11 19 11 C19 12.98 19 14.96 19 17 C16.03 17 13.06 17 10 17 C10 18.98 10 20.96 10 23 C11.32 23 12.64 23 14 23 C14 24.65 14 26.3 14 28 C9.38 28 4.76 28 0 28 C0 26.35 0 24.7 0 23 C0.99 23 1.98 23 3 23 C3 17.06 3 11.12 3 5 C2.01 5 1.02 5 0 5 C0 3.35 0 1.7 0 0 Z " fill="#303231" transform="translate(122,120)"/>
<path d="M0 0 C3.1875 1.9375 3.1875 1.9375 5 5 C5.79704394 9.36401285 5.48578532 12.8584045 3.75 16.9375 C0.88954321 20.30875265 -0.99561008 20.86980131 -5.375 21.4375 C-10.20918218 20.85406422 -11.63062001 19.44960332 -15 16 C-16.21762731 12.34711807 -16.39075851 9.84245864 -16 6 C-12.34122382 -0.93905826 -7.46219468 -1.45440076 0 0 Z " fill="#373A38" transform="translate(211,128)"/>
<path d="M0 0 C2.625 1.4375 2.625 1.4375 4 4 C5.13328384 8.30808609 5.53254087 11.71069053 3.8125 15.875 C0.82733264 19.37485138 -0.68910801 20.83006956 -5.375 21.4375 C-9.63308355 20.92359337 -11.72659976 19.72783353 -15 17 C-16.36146716 12.91559852 -16.62011425 9.26608718 -16 5 C-12.29108778 -1.26678272 -6.60009964 -1.05764309 0 0 Z " fill="#2B2E2C" transform="translate(71,128)"/>
<path d="M0 0 C3.1875 1.875 3.1875 1.875 5 5 C5.86496718 9.79663617 5.63901133 13.63862805 3.5625 18.0625 C-0.10801679 20.83776879 -3.43724562 21.42627809 -8 21 C-13.39759036 18.20481928 -13.39759036 18.20481928 -15 15 C-15.50675978 10.30624135 -15.52813631 6.25746741 -13.6875 1.875 C-9.36850711 -1.13825085 -5.080219 -0.90181402 0 0 Z " fill="#343634" transform="translate(161,128)"/>
<path d="M0 0 C2.97 0 5.94 0 9 0 C9 8.58 9 17.16 9 26 C9.99 26 10.98 26 12 26 C12 27.65 12 29.3 12 31 C8.04 31 4.08 31 0 31 C0 29.35 0 27.7 0 26 C0.99 26 1.98 26 3 26 C3 19.07 3 12.14 3 5 C2.01 5 1.02 5 0 5 C0 3.35 0 1.7 0 0 Z " fill="#343634" transform="translate(168,117)"/>
<path d="M0 0 C4.56197101 3.19818178 8.57935744 7.81350264 9.85546875 13.30078125 C10.59890221 19.9916824 10.12029759 25.85052075 5.85546875 31.30078125 C3.10546875 32.80078125 3.10546875 32.80078125 0.85546875 33.30078125 C1.12359375 32.78515625 1.39171875 32.26953125 1.66796875 31.73828125 C2.05984375 30.93390625 2.45171875 30.12953125 2.85546875 29.30078125 C3.39171875 28.22828125 3.92796875 27.15578125 4.48046875 26.05078125 C6.63396628 20.17760616 6.73658043 15.70263981 4.23046875 10.05078125 C1.60274377 5.29095201 -2.03302269 3.00461744 -7.14453125 1.30078125 C-14.29434879 0.6062926 -19.39097573 0.83884024 -25.14453125 5.30078125 C-26.51274176 7.27708532 -27.85404317 9.27287141 -29.14453125 11.30078125 C-30.13453125 11.30078125 -31.12453125 11.30078125 -32.14453125 11.30078125 C-30.8746947 5.37487733 -28.01631943 2.56142688 -23.14453125 -0.69921875 C-15.39906535 -5.04423621 -7.66108182 -4.20518463 0 0 Z " fill="#3F4540" transform="translate(125.14453125,36.69921875)"/>
<path d="M0 0 C6 0 12 0 18 0 C17.49396008 2.16874252 17.00016187 3.99967627 16 6 C14.02111039 6.72693904 12.02045442 7.39816251 10 8 C9.67 10.31 9.34 12.62 9 15 C9.99 15 10.98 15 12 15 C12 16.65 12 18.3 12 20 C8.04 20 4.08 20 0 20 C0 18.35 0 16.7 0 15 C0.99 15 1.98 15 3 15 C3 11.7 3 8.4 3 5 C2.01 5 1.02 5 0 5 C0 3.35 0 1.7 0 0 Z " fill="#2C2E2C" transform="translate(78,128)"/>
<path d="M0 0 C3.3 0 6.6 0 10 0 C10 4.95 10 9.9 10 15 C10.66 15 11.32 15 12 15 C12 16.65 12 18.3 12 20 C8.37 20 4.74 20 1 20 C1 18.35 1 16.7 1 15 C1.66 15 2.32 15 3 15 C3 11.7 3 8.4 3 5 C2.01 5 1.02 5 0 5 C0 3.35 0 1.7 0 0 Z " fill="#363836" transform="translate(181,128)"/>
<path d="M0 0 C3.96 0 7.92 0 12 0 C11.36934845 5.7809725 10.34844868 11.3443706 9 17 C7.02 17 5.04 17 3 17 C2.49453964 14.91798472 1.99583165 12.83432933 1.5 10.75 C1.2215625 9.58984375 0.943125 8.4296875 0.65625 7.234375 C0 4 0 4 0 0 Z " fill="#A6DEB3" transform="translate(107,60)"/>
<path d="M0 0 C1.66611905 -0.042721 3.33382885 -0.04063832 5 0 C6.89488952 1.89488952 6.18019112 4.57139146 6.23046875 7.08984375 C6 9 6 9 4 11 C1.9375 10.75 1.9375 10.75 0 10 C-1.36952673 7.26094655 -1.12621361 5.02912668 -1 2 C-0.67 1.34 -0.34 0.68 0 0 Z " fill="#A4DBB1" transform="translate(203,133)"/>
<path d="M0 0 C4.70588235 0.70588235 4.70588235 0.70588235 6 2 C6.26293056 6.03160191 6.29404844 7.55892734 4 11 C0.125 10.125 0.125 10.125 -1 9 C-1.1328125 7.1875 -1.1328125 7.1875 -1.125 5 C-1.12757812 4.278125 -1.13015625 3.55625 -1.1328125 2.8125 C-1 1 -1 1 0 0 Z " fill="#9ED7AB" transform="translate(63,133)"/>
<path d="M0 0 C1.32 0.66 2.64 1.32 4 2 C4.09765625 8.15234375 4.09765625 8.15234375 4 10 C3 11 3 11 0.4375 11.0625 C-0.366875 11.041875 -1.17125 11.02125 -2 11 C-2.05399736 9.54207116 -2.09279177 8.08357288 -2.125 6.625 C-2.15980469 5.40683594 -2.15980469 5.40683594 -2.1953125 4.1640625 C-2 2 -2 2 0 0 Z " fill="#A8E1B5" transform="translate(155,132)"/>
<path d="M0 0 C0.33 1.32 0.66 2.64 1 4 C-4.445 5.485 -4.445 5.485 -10 7 C-10 7.66 -10 8.32 -10 9 C-11.65 9 -13.3 9 -15 9 C-15 7.68 -15 6.36 -15 5 C-10.05 3.35 -5.1 1.7 0 0 Z " fill="#9FD4AB" transform="translate(120,86)"/>
<path d="M0 0 C1.2065625 0.0309375 1.2065625 0.0309375 2.4375 0.0625 C2.4375 1.0525 2.4375 2.0425 2.4375 3.0625 C0.14717689 3.89969383 -2.14460957 4.7323929 -4.4375 5.5625 C-5.41396484 5.92021484 -5.41396484 5.92021484 -6.41015625 6.28515625 C-11.3359375 8.0625 -11.3359375 8.0625 -13.5625 8.0625 C-13.5625 7.0725 -13.5625 6.0825 -13.5625 5.0625 C-12.49708984 4.64677734 -12.49708984 4.64677734 -11.41015625 4.22265625 C-10.03150391 3.67931641 -10.03150391 3.67931641 -8.625 3.125 C-7.70847656 2.76535156 -6.79195313 2.40570313 -5.84765625 2.03515625 C-1.13107855 0.02758728 -1.13107855 0.02758728 0 0 Z " fill="#A4DCB1" transform="translate(118.5625,79.9375)"/>
<path d="M0 0 C1.65 0.33 3.3 0.66 5 1 C5.625 3.375 5.625 3.375 6 6 C5.34 6.66 4.68 7.32 4 8 C1.375 7.625 1.375 7.625 -1 7 C-1.625 5.1875 -1.625 5.1875 -2 3 C-1.34 2.01 -0.68 1.02 0 0 Z " fill="#3F4541" transform="translate(185,117)"/>
<path d="M0 0 C4.95 0 9.9 0 15 0 C14.67 0.99 14.34 1.98 14 3 C9.38 3 4.76 3 0 3 C0 2.01 0 1.02 0 0 Z " fill="#383D39" transform="translate(72,54)"/>
<path d="M0 0 C0.99 0.33 1.98 0.66 3 1 C3 5.62 3 10.24 3 15 C2.01 15 1.02 15 0 15 C0 10.05 0 5.1 0 0 Z " fill="#414943" transform="translate(112,14)"/>
<path d="M0 0 C4.95 0 9.9 0 15 0 C14.67 0.99 14.34 1.98 14 3 C9.71 3 5.42 3 1 3 C0.67 2.01 0.34 1.02 0 0 Z " fill="#3E433F" transform="translate(139,54)"/>
<path d="M0 0 C0 3 0 3 -1.609375 4.7890625 C-2.31578125 5.39492188 -3.0221875 6.00078125 -3.75 6.625 C-4.44609375 7.23601563 -5.1421875 7.84703125 -5.859375 8.4765625 C-7.97551238 9.98257268 -9.46351883 10.57725314 -12 11 C-10.60807296 7.86989542 -8.97357774 5.67663308 -6.5625 3.25 C-5.96566406 2.63640625 -5.36882812 2.0228125 -4.75390625 1.390625 C-3 0 -3 0 0 0 Z " fill="#3E423F" transform="translate(144,27)"/>
<path d="M0 0 C3.15835107 1.39750048 5.32272825 3.05198234 7.75 5.5 C8.67039062 6.41265625 8.67039062 6.41265625 9.609375 7.34375 C11 9 11 9 11 11 C7.46180427 10.42073787 5.74971757 9.15676523 3.25 6.625 C2.63640625 6.01914062 2.0228125 5.41328125 1.390625 4.7890625 C0 3 0 3 0 0 Z " fill="#313231" transform="translate(83,27)"/>
<path d="M0 0 C2.64 0 5.28 0 8 0 C7.67 1.32 7.34 2.64 7 4 C5.35 4 3.7 4 2 4 C1.34 2.68 0.68 1.36 0 0 Z " fill="#A7E0B5" transform="translate(109,98)"/>
<path d="M0 0 C1.32 0.66 2.64 1.32 4 2 C4 2.99 4 3.98 4 5 C1.69 5 -0.62 5 -3 5 C-2.01 3.35 -1.02 1.7 0 0 Z " fill="#5F7664" transform="translate(118,90)"/>
<path d="M0 0 C-2.39509338 2.89932357 -4.31245243 3.50168276 -8 4 C-8 3.01 -8 2.02 -8 1 C-3.375 -1.125 -3.375 -1.125 0 0 Z " fill="#9FD5AC" transform="translate(113,84)"/>
</svg>
